<svg xmlns="http://www.w3.org/2000/svg" viewBox="0 0 69.85 60.61"><defs><style>.cls-1{fill:none;stroke:#1a1a1a;stroke-linecap:round;stroke-linejoin:round;stroke-width:1.44px;}</style></defs><g id="Layer_2" data-name="Layer 2"><g id="Layer_1-2" data-name="Layer 1"><polygon class="cls-1" points="34.92 59.89 30.69 38.27 17.7 45.21 25.53 33.94 0.72 30.31 25.71 26.64 17.7 15.4 30.73 22.18 34.92 0.72 39.17 22.34 52.16 15.4 44.32 26.68 69.13 30.31 44.14 33.98 52.16 44.79 39.12 38.43 34.92 59.89 34.92 59.89"></polygon><path class="cls-1" d="M25.3,55.47a34.16,34.16,0,0,1-4.42-1.61,31,31,0,0,1-4-2.16A29.5,29.5,0,0,1,13.26,49a28.07,28.07,0,0,1-3.07-3.1,26.47,26.47,0,0,1-2.5-3.49,25,25,0,0,1-1.86-3.82"></path><path class="cls-1" d="M5.83,22a25,25,0,0,1,1.86-3.82,26.47,26.47,0,0,1,2.5-3.49,28.07,28.07,0,0,1,3.07-3.1,31.75,31.75,0,0,1,3.59-2.66,30.53,30.53,0,0,1,4-2.16A33.49,33.49,0,0,1,25.3,5.14"></path><path class="cls-1" d="M44.55,5.14A34.16,34.16,0,0,1,49,6.75a31.06,31.06,0,0,1,7.62,4.82,28.07,28.07,0,0,1,3.07,3.1,26.47,26.47,0,0,1,2.5,3.49A25,25,0,0,1,64,22"></path><path class="cls-1" d="M64,38.63a25,25,0,0,1-1.86,3.82,26.47,26.47,0,0,1-2.5,3.49A28.07,28.07,0,0,1,56.59,49,29.5,29.5,0,0,1,53,51.7a31,31,0,0,1-4,2.16,34.16,34.16,0,0,1-4.42,1.61"></path><path class="cls-1" d="M34.93,34.41c-2.62,0-4.75-1.84-4.75-4.1s2.13-4.1,4.75-4.1,4.74,1.83,4.74,4.1-2.13,4.1-4.74,4.1Z"></path></g></g></svg>