<svg xmlns="http://www.w3.org/2000/svg" viewBox="0 0 59.58 62.68"><defs><style>.cls-1{fill:none;stroke:#1a1a1a;stroke-linecap:round;stroke-linejoin:round;stroke-width:1.44px;}</style></defs><g id="Layer_2" data-name="Layer 2"><g id="Layer_1-2" data-name="Layer 1"><path class="cls-1" d="M10.13,16.83H17c4.55,0,8.27,3.21,8.27,7.15V54.8C25.24,58.74,21.52,62,17,62H10.13c-4.55,0-8.27-3.22-8.27-7.16V24c0-3.94,3.72-7.15,8.27-7.15Z"></path><path class="cls-1" d="M42.61,16.83h6.84C54,16.83,57.72,20,57.72,24V54.8C57.72,58.74,54,62,49.45,62H42.61c-4.55,0-8.27-3.22-8.27-7.16V24c0-3.94,3.72-7.15,8.27-7.15Z"></path><line class="cls-1" x1="7.27" y1="10.54" x2="52.38" y2="10.54"></line><line class="cls-1" x1="13.55" y1="7.7" x2="13.55" y2="16.45"></line><line class="cls-1" x1="46.03" y1="7.7" x2="46.03" y2="16.45"></line><line class="cls-1" x1="29.82" y1="5.69" x2="29.82" y2="10.23"></line><line class="cls-1" x1="2.5" y1="25.64" x2="57.15" y2="25.64"></line><line class="cls-1" x1="2.5" y1="34.37" x2="57.15" y2="34.37"></line><path class="cls-1" d="M1.55,7.92l3.75.5c.45.06.83.32.83.72v2.8c0,.4-.38.67-.83.72l-3.75.5a.75.75,0,0,1-.83-.72V8.64a.76.76,0,0,1,.83-.72Z"></path><path class="cls-1" d="M54.29,8.42,58,7.92a.75.75,0,0,1,.83.72v3.8a.75.75,0,0,1-.83.72l-3.74-.5c-.46-.06-.84-.32-.84-.72V9.14c0-.4.38-.66.84-.72Z"></path><path class="cls-1" d="M27.37,4.68,26.23,1.44c-.13-.38.37-.72.83-.72h5.53c.46,0,1,.34.83.72L32.28,4.68a.9.9,0,0,1-.83.72H28.2a.89.89,0,0,1-.83-.72Z"></path><path class="cls-1" d="M52.76,40.32V53.93C52.76,56.2,50.63,58,48,58h-2.3"></path><path class="cls-1" d="M20.28,40.32V53.93c0,2.27-2.13,4.11-4.75,4.11H13.24"></path></g></g></svg>