<svg xmlns="http://www.w3.org/2000/svg" viewBox="0 0 73.27 64.47"><defs><style>.cls-1{fill:none;}.cls-1,.cls-2{stroke:#1a1a1a;stroke-linecap:round;stroke-linejoin:round;stroke-width:1.44px;}.cls-2{fill:#324c5e;fill-rule:evenodd;}</style></defs><g id="Layer_2" data-name="Layer 2"><g id="Layer_1-2" data-name="Layer 1"><path class="cls-1" d="M26.93,18.45a4.39,4.39,0,0,1,4.7,3.26c.66,2.18-.36,4.25-2.28,4.63s-4-1.08-4.69-3.26.35-4.25,2.27-4.63Z"></path><path class="cls-1" d="M36.21.72c7.12,0,12.9,2.87,12.9,9.46,0,9.89-9,6-9,15,0,2.37,2.8,11,6.82,6.63C50.4,28,56.24,23.67,60.88,26c3.11,1.53,5.72,5.89,9.71,2,1.27-1.24,3.08-1.46,1,2.12-2.21,3.86-3.39,4.49-7.52,3.62-2.58-.54-2-2-4.89-2.66-3.61-.82-6.24,2-8.23,3.5,1.19,1.47,10.4-1.73,14.77,6.71,1.57,3,1.57,7.93,5.09,9.63.05.49-.4,1.27-1.54.8-2.59-1.09-3.85-2.7-5.49-4.31-4.44-4.37-1.45-4.53-17.29-9.66C48.8,40,58.44,43.27,57.19,52c-.52,3.67-1.52,4.57.61,8-.27.49-.86.74-1.94,0-3.35-2.37-5.68-4.12-4.55-8.33,1.2-4.49-6-9-9.73-11.63,1.49,2.69,4.93,7.13,2.7,15-1.32,4.68.9,7.09-2,8.76-5.89-5.39-1.09-14.21-6.6-21.56C30.46,50,38.44,57.35,33.35,63.65c-3,0-2.74-3.8-4-8.49C27,46.58,26.74,47,31.42,39.34c1.66-2.73-10.77,5.24-8.88,12.27,1.13,4.21.91,3.92-2.26,8.33a1.1,1.1,0,0,1-1.94,0c2.14-3.39-1.16-4.28-1.69-8-1.24-8.73,6.67-12,8.94-14.26C9.68,42.78,11.8,42.08,9.45,46.89c-1,2-3.48,3.23-6.07,4.31-1.13.48-1.58-.31-1.54-.8,3.52-1.7,3-6.09,4.52-9.13,4.37-8.44,13.58-5.24,14.77-6.71-2-1.51-2.89-5.33-6.51-4.5-3,.69-6,5.84-9.55,4.39a7.22,7.22,0,0,1-3.43-3.34c-2-3.58-.23-3.36,1-2.12,4,3.87,6.6-2,9.71-3.54C17,23.17,21.72,28,25.17,31.78c4.19,4.59,7.12-4.61,7.12-6.63,0-8.94-9-5.08-9-15,0-6.59,5.78-9.46,12.9-9.46Z"></path><path class="cls-1" d="M45.48,18.45c-1.92-.38-4,1.08-4.69,3.26s.35,4.25,2.28,4.63,4-1.08,4.69-3.26-.35-4.25-2.28-4.63Z"></path><path class="cls-2" d="M29,22.76a1.62,1.62,0,0,1,1.72,1.48,1.73,1.73,0,0,1-3.43,0A1.62,1.62,0,0,1,29,22.76Z"></path><path class="cls-2" d="M43.66,22.76a1.62,1.62,0,0,1,1.71,1.48,1.73,1.73,0,0,1-3.42,0,1.61,1.61,0,0,1,1.71-1.48Z"></path></g></g></svg>