<svg xmlns="http://www.w3.org/2000/svg" viewBox="0 0 72.08 61.6"><defs><style>.cls-1{fill:none;stroke:#1a1a1a;stroke-linecap:round;stroke-linejoin:round;stroke-width:1.44px;}</style></defs><g id="Layer_2" data-name="Layer 2"><g id="Layer_1-2" data-name="Layer 1"><path class="cls-1" d="M71.36,60.88a10.08,10.08,0,0,1-8.83-5.05,10.24,10.24,0,0,1-17.66,0,10.24,10.24,0,0,1-17.66,0,10.08,10.08,0,0,1-8.83,5.05,10.08,10.08,0,0,1-8.83-5.05A10.08,10.08,0,0,1,.72,60.88"></path><path class="cls-1" d="M43.55,45.74c1.7-9.34,6.3-16.14,11.72-22.24-4.94,0-12.09,2.68-14.79,6.6a9.55,9.55,0,0,1,.84-7.36c2.32-3.45,8.34-4.91,12.54-3.7"></path><path class="cls-1" d="M40.45,16.1C42,11.34,50.67,11,54.64,13c3,1.51,3.55,2.95,3.9,5,1.83-4.67,16.4-4.76,12,8"></path><path class="cls-1" d="M62.7,20.29c3.92,0,9,3.58,7.57,7.8-.74,2.15-2.66,5.67-8.38,6.62"></path><path class="cls-1" d="M60.29,23.71c.18.11.37.23.55.36a6.87,6.87,0,0,1,1,10.64,9.09,9.09,0,0,1-5.09,2.56c1.12-5,1.16-9.67,0-12.57"></path><path class="cls-1" d="M33.88,44.32c-.22-7.63-1.62-16.53-10.45-28.21-4,4.07-7.57,10.54-5.35,15.91-2.8-1.08-6.27-3.92-7.41-6.61-2-4.62.06-9.33,4.71-11.84"></path><path class="cls-1" d="M9.72,24.34c-.21-.28-1.29-1.2-2.39-2.17C2,17.46,3.54,10.87,10.59,8.62a11.3,11.3,0,0,1,8.54.7c-1-6.05,13.75-13.94,20.08-3.53"></path><path class="cls-1" d="M27,7.84C31.74,3,43.18,4.64,44.6,12.12"></path><path class="cls-1" d="M27.68,12.26c7.36-1.9,15,2,14,10"></path><path class="cls-1" d="M39,26c-2-5.58-9-9.41-15.58-9.87"></path><path class="cls-1" d="M56.27,53.6c-1.72-1.15-4.39-4.49-6.47-4.79-6.5-1-1.39.19-7.36-2.63-6.26-3-23.51,0-27.78,6.92"></path></g></g></svg>