<svg xmlns="http://www.w3.org/2000/svg" viewBox="0 0 63.28 58.64"><defs><style>.cls-1{fill:none;stroke:#1a1a1a;stroke-linecap:round;stroke-linejoin:round;stroke-width:1.44px;}</style></defs><g id="Layer_2" data-name="Layer 2"><g id="Layer_1-2" data-name="Layer 1"><path class="cls-1" d="M16.81,16.09H46.47c8.85,0,16.09,5.86,16.09,13h0c0,8.38-6.83,12.75-16.4,12.75-8.28-.57-10.88-9.66-14.52-9.66s-6.36,8.47-14.53,9.66C7.55,41.86.72,37.49.72,29.11h0c0-7.16,7.24-13,16.09-13Z"></path><path class="cls-1" d="M25.64,56.84C15,56.92,2.1,57.67,2.1,42.5v-7"></path><line class="cls-1" x1="2.1" y1="23.97" x2="2.1" y2="1.15"></line><path class="cls-1" d="M27.55,50.85h8.18a1.76,1.76,0,0,1,1.87,1.62V56.3a1.76,1.76,0,0,1-1.87,1.62H27.55a1.77,1.77,0,0,1-1.88-1.62V52.47a1.77,1.77,0,0,1,1.88-1.62Z"></path><path class="cls-1" d="M16.64,41.86c5,0,10,3.81,15,3.81s10-3.81,15-3.81"></path><path class="cls-1" d="M25.59,51.84a39.38,39.38,0,0,1-9.31-.33C11.17,50.56,8,48.75,8,41.42"></path><polyline class="cls-1" points="2.1 1.15 8 0.72 8 17.38"></polyline></g></g></svg>