<svg xmlns="http://www.w3.org/2000/svg" viewBox="0 0 61.7 62.59"><defs><style>.cls-1{fill:none;stroke:#1a1a1a;stroke-linecap:round;stroke-linejoin:round;stroke-width:1.44px;}</style></defs><g id="Layer_2" data-name="Layer 2"><g id="Layer_1-2" data-name="Layer 1"><path class="cls-1" d="M30.85,9.75C47.49,9.75,61,21.41,61,35.81S47.49,61.87,30.85,61.87.72,50.2.72,35.81,14.21,9.75,30.85,9.75Z"></path><path class="cls-1" d="M30.85.72C28.18.72,26,2.59,26,4.9s2.16,4.18,4.83,4.18,4.83-1.87,4.83-4.18S33.52.72,30.85.72Z"></path><line class="cls-1" x1="30.85" y1="14.27" x2="30.85" y2="18.31"></line><line class="cls-1" x1="5.95" y1="35.81" x2="10.62" y2="35.81"></line><line class="cls-1" x1="30.85" y1="57.35" x2="30.85" y2="53.3"></line><line class="cls-1" x1="55.75" y1="35.81" x2="51.07" y2="35.81"></line><path class="cls-1" d="M28.63,29l4.47-3.74,4.47-3.73L42,17.77l-1.12,5.28-1.13,5.28-1.13,5.28a16.45,16.45,0,0,1-5.6,9l-4.47,3.74-4.47,3.74-4.47,3.74,1.13-5.29,1.13-5.28L23,38a16.47,16.47,0,0,1,5.59-9Z"></path><line class="cls-1" x1="24.95" y1="33.09" x2="36.74" y2="38.53"></line></g></g></svg>